<svg width="732" height="783" viewBox="0 0 732 783" fill="none" xmlns="http://www.w3.org/2000/svg">
<g opacity="0.67" filter="url(#filter0_f_16_1533)">
<path d="M292.112 611.449C275.28 614.972 235.188 652.062 217.246 670.167C217.246 672.777 216.854 673.103 215.288 653.53C213.343 629.212 223.483 600.059 235.138 566.552L235.351 565.941C242.788 538.539 276.291 489.281 292.112 468.077C309.891 470.36 346.525 475.221 350.831 476.395C356.214 477.863 356.214 500.861 357.192 529.242C357.975 551.947 350.994 584.046 347.406 597.258C335.988 600.52 308.945 607.925 292.112 611.449Z" fill="#449AD6"/>
<path d="M433.098 611.449C449.931 614.972 490.023 652.062 507.965 670.167C507.965 672.777 508.356 673.103 509.922 653.53C511.867 629.212 501.727 600.059 490.072 566.552L489.86 565.941C482.422 538.539 448.92 489.281 433.098 468.077C415.319 470.36 378.685 475.221 374.379 476.395C368.997 477.863 368.997 500.861 368.018 529.242C367.235 551.947 374.216 584.046 377.804 597.258C389.222 600.52 416.265 607.925 433.098 611.449Z" fill="#4CA654"/>
<path d="M354.346 121.246C359.097 108.024 377.797 108.024 382.548 121.246L429.826 252.833C433.686 263.574 424.587 274.634 413.258 273.248C399.584 271.576 382.621 269.885 368.447 269.647C354.489 269.412 337.827 271.036 324.264 272.79C312.792 274.274 303.389 263.07 307.3 252.184L354.346 121.246Z" fill="#DA3A32"/>
<path d="M119.73 388.167C108.274 382.764 108.274 366.467 119.73 361.064L273.883 288.35C284.557 283.315 296.691 292.028 295.527 303.772C293.528 323.951 291.197 351.854 290.905 374.616C290.616 397.176 292.971 424.787 295.129 444.922C296.4 456.777 284.135 465.717 273.353 460.631L119.73 388.167Z" fill="#8D63A5"/>
<path d="M612.27 388.167C623.726 382.764 623.726 366.467 612.27 361.064L458.117 288.35C447.443 283.315 435.309 292.028 436.473 303.772C438.472 323.951 440.803 351.854 441.095 374.616C441.384 397.176 439.029 424.787 436.871 444.922C435.6 456.777 447.865 465.717 458.647 460.631L612.27 388.167Z" fill="#F1B343"/>
<path d="M298.473 336.044C298.473 307.081 321.953 283.601 350.916 283.601H375.212C404.175 283.601 427.655 307.081 427.655 336.044V397.124C427.655 432.797 398.737 461.715 363.064 461.715C327.392 461.715 298.473 432.797 298.473 397.124V336.044Z" fill="#811C2C"/>
</g>
<path d="M298.591 590.944C283.234 594.158 246.658 627.996 230.289 644.514C230.289 646.895 229.932 647.192 228.504 629.336C226.729 607.149 235.98 580.553 246.613 549.984L246.807 549.427C253.592 524.428 284.157 479.489 298.591 460.144C314.811 462.227 348.232 466.662 352.161 467.733C357.072 469.072 357.072 490.054 357.964 515.946C358.679 536.66 352.31 565.945 349.036 577.998C338.62 580.974 313.948 587.73 298.591 590.944Z" fill="#449AD6"/>
<path d="M427.214 590.944C442.571 594.158 479.147 627.996 495.516 644.514C495.516 646.895 495.873 647.192 497.302 629.336C499.077 607.149 489.825 580.553 479.192 549.984L478.999 549.427C472.213 524.428 441.648 479.489 427.214 460.144C410.995 462.227 377.573 466.662 373.644 467.733C368.734 469.072 368.734 490.054 367.841 515.946C367.127 536.66 373.496 565.945 376.769 577.998C387.186 580.974 411.858 587.73 427.214 590.944Z" fill="#4CA654"/>
<path d="M350.859 156.275C356.713 139.984 379.752 139.984 385.605 156.275L421.482 256.128C426.237 269.362 415.017 282.994 401.039 281.464C390.348 280.294 378.49 279.288 368.232 279.115C358.227 278.947 346.7 279.825 336.217 280.985C322.052 282.553 310.45 268.741 315.27 255.329L350.859 156.275Z" fill="#DA3A32"/>
<path d="M150.51 391.575C136.397 384.918 136.397 364.84 150.51 358.183L274.099 299.886C287.249 293.683 302.214 304.42 300.88 318.898C299.291 336.131 297.717 357.204 297.49 374.879C297.266 392.32 298.775 413.07 300.439 430.175C301.861 444.795 286.73 455.83 273.445 449.563L150.51 391.575Z" fill="#8D63A5"/>
<path d="M581.49 391.575C595.603 384.918 595.603 364.84 581.49 358.183L457.901 299.886C444.751 293.683 429.786 304.42 431.12 318.898C432.709 336.131 434.283 357.204 434.51 374.879C434.734 392.32 433.224 413.07 431.561 430.175C430.139 444.795 445.27 455.83 458.555 449.563L581.49 391.575Z" fill="#F1B343"/>
<path d="M304.395 339.69C304.395 313.267 325.815 291.846 352.239 291.846H374.404C400.828 291.846 422.248 313.267 422.248 339.69V395.415C422.248 427.959 395.866 454.342 363.322 454.342C330.777 454.342 304.395 427.959 304.395 395.415V339.69Z" fill="#811C2C"/>
<defs>
<filter id="filter0_f_16_1533" x="0.376923" y="0.568085" width="731.246" height="781.629" filterUnits="userSpaceOnUse" color-interpolation-filters="sRGB">
<feFlood flood-opacity="0" result="BackgroundImageFix"/>
<feBlend mode="normal" in="SourceGraphic" in2="BackgroundImageFix" result="shape"/>
<feGaussianBlur stdDeviation="55.3806" result="effect1_foregroundBlur_16_1533"/>
</filter>
</defs>
</svg>
